<?xml version="1.0" encoding="utf-8"?>
<!-- Generator: Adobe Illustrator 16.0.0, SVG Export Plug-In . SVG Version: 6.00 Build 0)  -->
<!DOCTYPE svg PUBLIC "-//W3C//DTD SVG 1.1//EN" "http://www.w3.org/Graphics/SVG/1.1/DTD/svg11.dtd">
<svg version="1.1" id="Layer_1" xmlns="http://www.w3.org/2000/svg" xmlns:xlink="http://www.w3.org/1999/xlink" x="0px" y="0px"
	 width="640px" height="640px" viewBox="0 0 640 640" enable-background="new 0 0 640 640" xml:space="preserve">
<symbol  id="New_Symbol_6" viewBox="-115.718 -114.607 231.436 229.214">
	<g>
		<g>
			<path fill="#6EC5CF" d="M72.213,69.75c-0.027,0-0.054,0.002-0.081,0.006c-0.812,0.132-1.629,0.245-2.452,0.338
				c-0.211,0.024-0.384,0.178-0.432,0.385c-0.186,0.807-0.39,1.608-0.61,2.401c-0.074,0.266,0.081,0.542,0.348,0.616
				c0.268,0.073,0.541-0.082,0.615-0.348c0.193-0.694,0.374-1.395,0.542-2.101c0.721-0.086,1.438-0.188,2.149-0.304
				c0.272-0.044,0.458-0.301,0.413-0.574C72.665,69.925,72.453,69.75,72.213,69.75z"/>
		</g>
		<g>
			<path fill="#6EC5CF" d="M67.513,77.407c-0.201,0-0.392,0.123-0.467,0.322c-0.604,1.585-1.288,3.16-2.033,4.68
				c-0.121,0.248-0.019,0.548,0.229,0.669c0.245,0.123,0.548,0.02,0.669-0.229c0.758-1.548,1.454-3.151,2.068-4.765
				c0.099-0.258-0.031-0.547-0.289-0.645C67.632,77.417,67.572,77.407,67.513,77.407z M-34.649,83.753
				c-0.079,0-0.16,0.019-0.234,0.059c-0.244,0.129-0.337,0.432-0.207,0.676c0.806,1.519,1.695,3.021,2.644,4.467
				c0.151,0.232,0.462,0.296,0.692,0.144c0.23-0.151,0.295-0.461,0.144-0.692c-0.931-1.42-1.805-2.897-2.597-4.388
				C-34.298,83.85-34.471,83.753-34.649,83.753z M62.986,86.642c-0.168,0-0.333,0.085-0.427,0.24c-0.88,1.442-1.84,2.866-2.853,4.23
				c-0.165,0.222-0.118,0.535,0.104,0.699c0.223,0.164,0.535,0.119,0.699-0.104c1.031-1.389,2.008-2.837,2.903-4.306
				c0.144-0.236,0.069-0.543-0.166-0.687C63.165,86.666,63.075,86.642,62.986,86.642z M-29.016,92.352
				c-0.109,0-0.219,0.035-0.311,0.108c-0.217,0.172-0.253,0.486-0.081,0.703c1.068,1.346,2.216,2.663,3.411,3.914
				c0.189,0.199,0.506,0.207,0.707,0.016c0.199-0.19,0.207-0.507,0.016-0.707c-1.174-1.229-2.301-2.523-3.351-3.845
				C-28.723,92.417-28.868,92.352-29.016,92.352z M56.855,94.897c-0.137,0-0.273,0.056-0.373,0.167
				c-1.13,1.263-2.331,2.488-3.571,3.642c-0.202,0.188-0.213,0.505-0.025,0.707c0.189,0.201,0.505,0.212,0.707,0.025
				c1.262-1.175,2.484-2.422,3.636-3.708c0.184-0.206,0.166-0.522-0.04-0.706C57.094,94.939,56.975,94.897,56.855,94.897z
				 M-21.914,99.787c-0.14,0-0.278,0.058-0.377,0.171c-0.182,0.208-0.16,0.524,0.048,0.706c1.298,1.132,2.665,2.219,4.065,3.231
				c0.223,0.162,0.536,0.112,0.698-0.112c0.162-0.224,0.111-0.536-0.112-0.698c-1.376-0.995-2.72-2.063-3.993-3.175
				C-21.68,99.828-21.797,99.787-21.914,99.787z M49.329,101.903c-0.107,0-0.215,0.034-0.306,0.104
				c-1.341,1.037-2.744,2.024-4.172,2.933c-0.233,0.148-0.302,0.458-0.153,0.69c0.149,0.233,0.461,0.299,0.69,0.153
				c1.453-0.926,2.882-1.931,4.246-2.986c0.219-0.169,0.259-0.483,0.09-0.701C49.626,101.97,49.479,101.903,49.329,101.903z
				 M-13.58,105.813c-0.17,0-0.337,0.087-0.43,0.245c-0.142,0.238-0.063,0.544,0.175,0.685c1.482,0.878,3.024,1.698,4.586,2.438
				c0.247,0.118,0.546,0.013,0.666-0.237c0.118-0.25,0.012-0.548-0.238-0.666c-1.533-0.727-3.048-1.533-4.504-2.395
				C-13.405,105.835-13.493,105.813-13.58,105.813z M40.658,107.423c-0.077,0-0.155,0.018-0.229,0.056
				c-1.505,0.774-3.064,1.488-4.635,2.121c-0.257,0.104-0.381,0.395-0.277,0.651c0.104,0.256,0.396,0.38,0.65,0.277
				c1.6-0.645,3.188-1.372,4.719-2.16c0.246-0.126,0.343-0.428,0.216-0.673C41.014,107.522,40.839,107.423,40.658,107.423z
				 M-4.286,110.217c-0.204,0-0.396,0.125-0.47,0.329c-0.095,0.259,0.039,0.546,0.298,0.641c1.621,0.592,3.289,1.115,4.957,1.556
				c0.271,0.07,0.54-0.089,0.611-0.356c0.07-0.267-0.089-0.541-0.355-0.611c-1.639-0.433-3.277-0.947-4.869-1.528
				C-4.171,110.227-4.229,110.217-4.286,110.217z M31.128,111.265c-0.047,0-0.096,0.007-0.144,0.021
				c-1.621,0.485-3.285,0.901-4.947,1.235c-0.271,0.055-0.446,0.318-0.392,0.589s0.324,0.447,0.589,0.392
				c1.691-0.34,3.387-0.763,5.037-1.257c0.265-0.079,0.415-0.358,0.335-0.623C31.542,111.404,31.344,111.265,31.128,111.265z
				 M5.661,112.842c-0.239,0-0.451,0.173-0.492,0.417c-0.046,0.272,0.139,0.53,0.411,0.576c1.698,0.284,3.433,0.493,5.153,0.621
				c0.267,0.023,0.516-0.186,0.536-0.461s-0.187-0.515-0.462-0.536c-1.69-0.126-3.395-0.331-5.063-0.61
				C5.717,112.844,5.688,112.842,5.661,112.842z M21.049,113.292c-0.019,0-0.036,0.001-0.055,0.003
				c-1.68,0.18-3.392,0.285-5.09,0.312c-0.276,0.004-0.496,0.232-0.492,0.508s0.253,0.477,0.508,0.492
				c1.729-0.027,3.472-0.134,5.182-0.317c0.274-0.029,0.473-0.276,0.443-0.55C21.518,113.483,21.301,113.292,21.049,113.292z"/>
		</g>
		<g>
			<path fill="#6EC5CF" d="M-37.784,76.726c-0.128,0-0.253,0.049-0.348,0.141c-0.586,0.566-1.203,1.115-1.836,1.632
				c-0.214,0.174-0.245,0.489-0.071,0.703c0.177,0.214,0.491,0.246,0.704,0.071c0.458-0.374,0.909-0.765,1.346-1.167
				c0.21,0.552,0.429,1.099,0.656,1.642c0.105,0.256,0.397,0.375,0.654,0.269c0.254-0.107,0.374-0.399,0.268-0.654
				c-0.318-0.761-0.619-1.53-0.903-2.309c-0.059-0.159-0.192-0.277-0.357-0.315C-37.709,76.73-37.747,76.726-37.784,76.726z"/>
		</g>
		<g>
			<path fill="#6EC5CF" d="M-87.211,59.46c-0.021,0-0.043,0.001-0.065,0.004c-0.273,0.036-0.467,0.286-0.432,0.56
				c0.226,1.744,0.607,3.475,1.137,5.146c0.083,0.263,0.365,0.411,0.627,0.326c0.264-0.083,0.409-0.364,0.326-0.627
				c-0.511-1.615-0.88-3.288-1.098-4.972C-86.749,59.644-86.964,59.46-87.211,59.46z M-84.098,69.299
				c-0.079,0-0.159,0.019-0.233,0.058c-0.244,0.129-0.338,0.431-0.209,0.675c0.817,1.552,1.779,3.041,2.857,4.427
				c0.17,0.218,0.484,0.258,0.701,0.087c0.219-0.169,0.258-0.484,0.088-0.702c-1.042-1.339-1.972-2.779-2.762-4.279
				C-83.745,69.396-83.918,69.299-84.098,69.299z M-77.758,77.445c-0.137,0-0.272,0.056-0.371,0.166
				c-0.186,0.205-0.169,0.521,0.036,0.706c1.305,1.175,2.722,2.241,4.211,3.169c0.234,0.144,0.544,0.076,0.689-0.16
				c0.146-0.234,0.074-0.542-0.16-0.688c-1.44-0.897-2.81-1.927-4.07-3.063C-77.519,77.488-77.639,77.445-77.758,77.445z
				 M-43.939,81.294c-0.083,0-0.166,0.02-0.243,0.063c-1.485,0.826-3.051,1.523-4.653,2.071c-0.261,0.089-0.4,0.374-0.311,0.635
				c0.089,0.262,0.373,0.4,0.635,0.312c1.658-0.567,3.278-1.288,4.815-2.143c0.241-0.134,0.328-0.439,0.193-0.68
				C-43.594,81.387-43.765,81.294-43.939,81.294z M-68.992,82.9c-0.198,0-0.387,0.119-0.465,0.315
				c-0.102,0.256,0.023,0.547,0.279,0.649c1.63,0.649,3.329,1.157,5.052,1.507c0.268,0.056,0.534-0.119,0.59-0.39
				c0.055-0.271-0.12-0.535-0.391-0.589c-1.664-0.339-3.307-0.829-4.88-1.457C-68.868,82.911-68.931,82.9-68.992,82.9z
				 M-53.705,84.635c-0.025,0-0.051,0.002-0.076,0.006c-1.672,0.255-3.393,0.363-5.086,0.321c-0.267-0.007-0.505,0.212-0.512,0.488
				c-0.007,0.276,0.212,0.505,0.488,0.512c1.752,0.042,3.531-0.069,5.26-0.333c0.273-0.042,0.461-0.296,0.419-0.569
				C-53.249,84.813-53.463,84.635-53.705,84.635z"/>
		</g>
		<g>
			<path fill="#6EC5CF" d="M-89.498,50.799c-0.19,0-0.373,0.11-0.456,0.295c-0.113,0.252,0,0.548,0.252,0.661
				c0.646,0.29,1.308,0.566,1.969,0.824c-0.088,0.718-0.15,1.436-0.186,2.137c-0.015,0.275,0.197,0.511,0.474,0.525
				c0.298,0.024,0.511-0.199,0.524-0.474c0.041-0.802,0.118-1.625,0.229-2.447c0.031-0.23-0.101-0.452-0.318-0.535
				c-0.766-0.29-1.534-0.607-2.283-0.943C-89.36,50.813-89.43,50.799-89.498,50.799z"/>
		</g>
		<g>
			<path fill="#6EC5CF" d="M61.139-32.607h-5.027c-0.276,0-0.5,0.224-0.5,0.5s0.224,0.5,0.5,0.5h5.027c0.276,0,0.5-0.224,0.5-0.5
				S61.415-32.607,61.139-32.607z M51.083-32.607h-5.028c-0.276,0-0.5,0.224-0.5,0.5s0.224,0.5,0.5,0.5h5.028
				c0.276,0,0.5-0.224,0.5-0.5S51.359-32.607,51.083-32.607z M41.027-32.607h-5.028c-0.276,0-0.5,0.224-0.5,0.5s0.224,0.5,0.5,0.5
				h5.028c0.276,0,0.5-0.224,0.5-0.5S41.304-32.607,41.027-32.607z M30.972-32.607h-5.028c-0.276,0-0.5,0.224-0.5,0.5
				s0.224,0.5,0.5,0.5h5.028c0.276,0,0.5-0.224,0.5-0.5S31.248-32.607,30.972-32.607z M20.915-32.607h-5.027
				c-0.276,0-0.5,0.224-0.5,0.5s0.224,0.5,0.5,0.5h5.027c0.276,0,0.5-0.224,0.5-0.5S21.191-32.607,20.915-32.607z M10.859-32.607
				H5.832c-0.276,0-0.5,0.224-0.5,0.5s0.224,0.5,0.5,0.5h5.027c0.276,0,0.5-0.224,0.5-0.5S11.136-32.607,10.859-32.607z
				 M0.804-32.607h-5.028c-0.276,0-0.5,0.224-0.5,0.5s0.224,0.5,0.5,0.5h5.028c0.276,0,0.5-0.224,0.5-0.5S1.08-32.607,0.804-32.607z
				 M-9.252-32.607h-5.028c-0.276,0-0.5,0.224-0.5,0.5s0.224,0.5,0.5,0.5h5.028c0.276,0,0.5-0.224,0.5-0.5
				S-8.976-32.607-9.252-32.607z M-19.308-32.607h-5.028c-0.276,0-0.5,0.224-0.5,0.5s0.224,0.5,0.5,0.5h5.028
				c0.276,0,0.5-0.224,0.5-0.5S-19.031-32.607-19.308-32.607z M-29.363-32.607h-5.028c-0.276,0-0.5,0.224-0.5,0.5s0.224,0.5,0.5,0.5
				h5.028c0.276,0,0.5-0.224,0.5-0.5S-29.087-32.607-29.363-32.607z M-39.42-32.607h-5.027c-0.276,0-0.5,0.224-0.5,0.5
				s0.224,0.5,0.5,0.5h5.027c0.276,0,0.5-0.224,0.5-0.5S-39.144-32.607-39.42-32.607z M-49.476-32.607h-5.027
				c-0.276,0-0.5,0.224-0.5,0.5s0.224,0.5,0.5,0.5h5.027c0.276,0,0.5-0.224,0.5-0.5S-49.199-32.607-49.476-32.607z M-59.531-32.607
				h-5.028c-0.276,0-0.5,0.224-0.5,0.5s0.224,0.5,0.5,0.5h5.028c0.276,0,0.5-0.224,0.5-0.5S-59.255-32.607-59.531-32.607z
				 M-69.587-32.607h-2.225c-0.945,0-1.898,0.031-2.833,0.091c-0.275,0.018-0.484,0.255-0.467,0.531
				c0.019,0.276,0.286,0.473,0.531,0.467c0.913-0.059,1.845-0.089,2.769-0.089h2.225c0.276,0,0.5-0.224,0.5-0.5
				S-69.311-32.607-69.587-32.607z M66.165-32.607c-0.267,0-0.488,0.234-0.5,0.503c-0.012,0.276,0.202,0.521,0.479,0.533
				c1.654,0.072,3.32,0.232,4.953,0.465c0.269,0.039,0.526-0.148,0.565-0.421c0.039-0.273-0.151-0.55-0.425-0.589
				c-1.664-0.237-3.363-0.491-5.051-0.491C66.18-32.607,66.172-32.607,66.165-32.607z M-79.598-31.905
				c-0.03,0-0.061,0.002-0.091,0.008c-1.663,0.304-3.324,0.709-4.938,1.205c-0.265,0.081-0.412,0.361-0.331,0.625
				c0.08,0.264,0.36,0.414,0.624,0.331c1.577-0.484,3.2-0.88,4.824-1.177c0.271-0.049,0.451-0.31,0.402-0.582
				C-79.15-31.736-79.361-31.905-79.598-31.905z M76.1-31.142c-0.226,0-0.43,0.153-0.485,0.381
				c-0.066,0.268,0.098,0.539,0.366,0.605c1.603,0.393,3.207,0.871,4.769,1.422c0.256,0.091,0.546-0.044,0.638-0.305
				s-0.045-0.546-0.306-0.638c-1.592-0.562-3.229-1.05-4.862-1.451C76.179-31.138,76.139-31.142,76.1-31.142z M-89.187-28.96
				c-0.067,0-0.136,0.014-0.201,0.042c-1.543,0.68-3.063,1.458-4.521,2.315c-0.238,0.14-0.318,0.446-0.178,0.685
				c0.14,0.239,0.449,0.316,0.684,0.178c1.425-0.837,2.911-1.598,4.418-2.262c0.253-0.111,0.368-0.406,0.257-0.659
				C-88.812-28.849-88.995-28.96-89.187-28.96z M85.564-27.8c-0.188,0-0.367,0.106-0.453,0.288c-0.117,0.25-0.009,0.548,0.241,0.665
				c1.497,0.702,2.976,1.486,4.395,2.331c0.233,0.141,0.543,0.065,0.686-0.174c0.142-0.237,0.063-0.544-0.174-0.686
				c-1.447-0.861-2.955-1.661-4.482-2.377C85.708-27.785,85.636-27.8,85.564-27.8z M-97.833-23.882
				c-0.105,0-0.211,0.033-0.302,0.101c-1.348,1.018-2.65,2.125-3.872,3.29c-0.2,0.19-0.208,0.507-0.018,0.707
				c0.191,0.2,0.508,0.207,0.707,0.017c1.194-1.138,2.468-2.22,3.786-3.215c0.22-0.167,0.264-0.48,0.098-0.7
				C-97.532-23.814-97.682-23.882-97.833-23.882z M94.192-22.67c-0.153,0-0.305,0.07-0.403,0.204
				c-0.163,0.223-0.115,0.536,0.107,0.699c1.329,0.978,2.628,2.034,3.86,3.14c0.205,0.185,0.521,0.168,0.706-0.038
				c0.185-0.206,0.167-0.521-0.038-0.706c-1.257-1.128-2.581-2.205-3.937-3.202C94.399-22.638,94.296-22.67,94.192-22.67z
				 M-105.094-16.96c-0.143,0-0.285,0.061-0.384,0.18c-1.081,1.294-2.1,2.668-3.027,4.083c-0.151,0.231-0.087,0.541,0.144,0.692
				c0.229,0.152,0.54,0.088,0.692-0.144c0.907-1.383,1.903-2.726,2.959-3.991c0.177-0.212,0.148-0.527-0.063-0.704
				C-104.867-16.922-104.98-16.96-105.094-16.96z M101.665-15.966c-0.121,0-0.242,0.043-0.338,0.132
				c-0.204,0.187-0.217,0.503-0.03,0.706c1.119,1.22,2.19,2.507,3.183,3.825c0.167,0.222,0.481,0.264,0.7,0.099
				c0.221-0.166,0.265-0.479,0.099-0.7c-1.012-1.344-2.104-2.656-3.245-3.899C101.935-15.911,101.8-15.966,101.665-15.966z
				 M-110.596-8.57c-0.183,0-0.359,0.101-0.447,0.275c-0.758,1.51-1.436,3.08-2.015,4.667c-0.095,0.259,0.039,0.546,0.299,0.641
				c0.258,0.094,0.546-0.04,0.641-0.298c0.565-1.551,1.229-3.085,1.97-4.561c0.123-0.247,0.023-0.547-0.223-0.671
				C-110.443-8.553-110.52-8.57-110.596-8.57z M107.706-7.948c-0.09,0-0.18,0.023-0.261,0.073c-0.235,0.145-0.31,0.452-0.166,0.688
				c0.864,1.413,1.667,2.882,2.386,4.367c0.122,0.249,0.42,0.352,0.668,0.232c0.249-0.121,0.353-0.419,0.232-0.668
				c-0.733-1.514-1.552-3.012-2.433-4.453C108.038-7.863,107.874-7.948,107.706-7.948z M-114.034,0.858
				c-0.227,0-0.432,0.154-0.486,0.384c-0.391,1.643-0.69,3.326-0.889,5.003c-0.033,0.274,0.163,0.523,0.438,0.556
				c0.27,0.035,0.523-0.164,0.555-0.438c0.195-1.64,0.487-3.285,0.869-4.89c0.064-0.269-0.102-0.538-0.37-0.602
				C-113.957,0.862-113.996,0.858-114.034,0.858z M112.082,1.085c-0.058,0-0.116,0.01-0.173,0.031
				c-0.26,0.096-0.392,0.383-0.296,0.643c0.57,1.547,1.072,3.144,1.491,4.747c0.069,0.266,0.339,0.427,0.609,0.357
				c0.268-0.07,0.428-0.343,0.357-0.61c-0.427-1.634-0.938-3.262-1.521-4.84C112.477,1.21,112.285,1.085,112.082,1.085z
				 M114.616,10.796c-0.026,0-0.053,0.002-0.079,0.006c-0.272,0.043-0.459,0.299-0.416,0.572c0.258,1.629,0.439,3.293,0.539,4.946
				c0.017,0.275,0.229,0.483,0.529,0.469c0.275-0.017,0.485-0.253,0.469-0.529c-0.102-1.685-0.286-3.381-0.549-5.042
				C115.07,10.972,114.857,10.796,114.616,10.796z M-115.218,10.818c-0.276,0-0.5,0.224-0.5,0.5v0.16
				c0,1.642,0.092,3.294,0.271,4.912c0.03,0.275,0.268,0.472,0.553,0.442c0.274-0.031,0.472-0.278,0.441-0.552
				c-0.177-1.582-0.266-3.197-0.266-4.802v-0.16C-114.718,11.042-114.941,10.818-115.218,10.818z M-114.108,20.789
				c-0.037,0-0.074,0.004-0.112,0.013c-0.27,0.062-0.437,0.331-0.375,0.6c0.38,1.648,0.858,3.289,1.424,4.876
				c0.092,0.26,0.379,0.394,0.639,0.304c0.26-0.093,0.396-0.378,0.303-0.639c-0.552-1.552-1.02-3.155-1.391-4.766
				C-113.675,20.945-113.88,20.789-114.108,20.789z M115.218,20.393c-0.269,0-0.49,0.423-0.5,0.693
				c-0.06,1.651-0.201,3.425-0.421,5.063c-0.037,0.273,0.155,0.579,0.429,0.615c0.266,0.037,0.525-0.129,0.562-0.403
				c0.225-1.67,0.369-3.57,0.431-5.253c0.01-0.276-0.206-0.716-0.481-0.716C115.229,20.393,115.224,20.393,115.218,20.393z
				 M-110.747,30.238c-0.074,0-0.149,0.017-0.221,0.051c-0.248,0.122-0.35,0.422-0.228,0.669c0.745,1.515,1.586,3.003,2.501,4.423
				c0.148,0.232,0.458,0.298,0.69,0.15c0.232-0.149,0.3-0.459,0.15-0.691c-0.895-1.388-1.717-2.843-2.445-4.324
				C-110.386,30.341-110.563,30.238-110.747,30.238z M113.881,30.763c-0.228,0-0.433,0.155-0.486,0.385
				c-0.378,1.604-0.842,3.213-1.378,4.784c-0.09,0.261,0.05,0.545,0.311,0.635c0.26,0.088,0.546-0.05,0.636-0.312
				c0.547-1.602,1.02-3.243,1.404-4.877c0.063-0.269-0.103-0.538-0.372-0.602C113.957,30.767,113.918,30.763,113.881,30.763z
				 M-105.318,38.675c-0.111,0-0.224,0.037-0.317,0.113c-0.213,0.175-0.244,0.49-0.069,0.704c1.073,1.31,2.231,2.568,3.441,3.74
				c0.198,0.192,0.515,0.187,0.707-0.011c0.191-0.198,0.187-0.515-0.012-0.707c-1.183-1.146-2.314-2.376-3.363-3.656
				C-105.03,38.737-105.174,38.675-105.318,38.675z M110.63,40.264c-0.189,0-0.371,0.108-0.455,0.292
				c-0.686,1.504-1.453,2.993-2.282,4.424c-0.139,0.239-0.057,0.545,0.182,0.683c0.236,0.138,0.544,0.059,0.684-0.182
				c0.846-1.459,1.628-2.977,2.327-4.51c0.114-0.251,0.004-0.548-0.248-0.663C110.77,40.278,110.699,40.264,110.63,40.264z
				 M-98.113,45.656c-0.149,0-0.298,0.067-0.396,0.196c-0.168,0.219-0.127,0.533,0.092,0.701c1.345,1.031,2.76,1.992,4.205,2.855
				c0.237,0.142,0.544,0.065,0.687-0.173c0.142-0.237,0.063-0.544-0.173-0.686c-1.413-0.844-2.796-1.783-4.109-2.791
				C-97.899,45.69-98.007,45.656-98.113,45.656z M105.597,48.952c-0.155,0-0.309,0.072-0.406,0.208
				c-0.964,1.343-2.005,2.654-3.094,3.899c-0.183,0.208-0.161,0.523,0.047,0.706c0.207,0.181,0.523,0.161,0.705-0.047
				c1.11-1.269,2.172-2.606,3.154-3.975c0.161-0.224,0.109-0.537-0.114-0.698C105.8,48.982,105.698,48.952,105.597,48.952z
				 M98.982,56.504c-0.123,0-0.246,0.045-0.343,0.136c-1.2,1.129-2.474,2.216-3.785,3.229c-0.219,0.169-0.259,0.483-0.09,0.701
				c0.17,0.219,0.485,0.258,0.701,0.09c1.337-1.033,2.635-2.141,3.859-3.292c0.201-0.189,0.211-0.506,0.021-0.707
				C99.248,56.557,99.115,56.504,98.982,56.504z M91.038,62.638c-0.091,0-0.183,0.024-0.266,0.076
				c-1.401,0.879-2.861,1.697-4.339,2.433c-0.247,0.123-0.348,0.423-0.225,0.67c0.123,0.248,0.425,0.347,0.67,0.225
				c1.507-0.75,2.995-1.584,4.425-2.48c0.234-0.147,0.305-0.456,0.158-0.689C91.367,62.721,91.204,62.638,91.038,62.638z
				 M82.055,67.108c-0.06,0-0.119,0.01-0.178,0.033c-1.544,0.586-3.136,1.103-4.73,1.533c-0.268,0.072-0.425,0.347-0.353,0.613
				c0.072,0.266,0.349,0.423,0.612,0.353c1.627-0.439,3.251-0.966,4.826-1.564c0.258-0.098,0.388-0.387,0.29-0.645
				C82.446,67.23,82.256,67.108,82.055,67.108z"/>
		</g>
	</g>
	<g>
		<g>
			<path fill="#15638A" d="M-40.718-13.607h-1v31.1c0,2.564-2.183,4.9-4.58,4.9h-7.6c-2.861,0-5.82,1.908-5.82,5.1v31.9h1v-31.9
				c0-2.566,2.451-4.1,4.82-4.1h7.6c2.921,0,5.58-2.812,5.58-5.9V-13.607z"/>
		</g>
	</g>
	<g>
		<g>
			<path fill="#6EC5CF" d="M35.282-13.607h-1v19.38c0,2.72,1.851,4.62,4.5,4.62h6.16c2.19,0,4.34,2.07,4.34,4.18v5.82h1v-5.82
				c0-2.663-2.595-5.18-5.34-5.18h-6.16c-2.094,0-3.5-1.455-3.5-3.62V-13.607z"/>
		</g>
	</g>
	<g>
		<g>
			<path fill="#6EC5CF" d="M55.282-13.607h-1v21.42c0,3.077,2.396,5.58,5.34,5.58h2.32c2.434,0,4.34,1.941,4.34,4.42v26.58h1v-26.58
				c0-3.039-2.346-5.42-5.34-5.42h-2.32c-2.393,0-4.34-2.055-4.34-4.58V-13.607z"/>
		</g>
	</g>
	<g>
		<g>
			<path fill="#6EC5CF" d="M-55.718-13.607h-1v23.18c0,2.567-2.121,4.82-4.54,4.82h-8.479c-2.888,0-5.98,2.082-5.98,5.18v6.82h1
				v-6.82c0-2.5,2.575-4.18,4.98-4.18h8.479c2.951,0,5.54-2.72,5.54-5.82V-13.607z"/>
		</g>
	</g>
	<g>
		<g>
			<path fill="#15638A" d="M-65.718-13.607h-1v17.5c0,2.481-2.019,4.5-4.5,4.5h-7.5v1h7.5c3.032,0,5.5-2.467,5.5-5.5V-13.607z"/>
		</g>
	</g>
	<g>
		<g>
			<path fill="#15638A" d="M64.282-13.607h-1v14.5c0,3.033,2.468,5.5,5.5,5.5h10.5v-1h-10.5c-2.481,0-4.5-2.019-4.5-4.5V-13.607z"/>
		</g>
	</g>
	<g>
		<g>
			<path fill="#15638A" d="M15.282-4.607h-1v25.62c0,3.017,2.416,5.38,5.5,5.38h12.24c2.389,0,4.26,2.029,4.26,4.62v18.38h1v-18.38
				c0-3.151-2.311-5.62-5.26-5.62h-12.24c-2.523,0-4.5-1.924-4.5-4.38V-4.607z"/>
		</g>
	</g>
	<g>
		<g>
			<path fill="#15638A" d="M6.282-4.607h-1v60.82c0,3.2,3.083,5.18,5.939,5.18h4.08c2.514,0,4.98,2.387,4.98,4.82v20.18h1v-20.18
				c0-2.992-2.906-5.82-5.98-5.82h-4.08c-2.386,0-4.939-1.68-4.939-4.18V-4.607z"/>
		</g>
	</g>
	<g>
		<g>
			<path fill="#15638A" d="M-2.718-4.607h-1v46.74c0,2.349-2.126,4.26-4.74,4.26h-1.439c-3.046,0-5.82,2.736-5.82,5.74v17.26h1
				v-17.26c0-2.437,2.343-4.74,4.82-4.74h1.439c3.165,0,5.74-2.359,5.74-5.26V-4.607z"/>
		</g>
	</g>
	<g>
		<g>
			<path fill="#15638A" d="M-13.718-4.607h-1v15.94c0,2.391-1.769,4.06-4.3,4.06h-9.36c-3.194,0-5.34,3.071-5.34,5.94v10.06h1
				v-10.06c0-2.336,1.782-4.94,4.34-4.94h9.36c3.12,0,5.3-2.081,5.3-5.06V-4.607z"/>
		</g>
	</g>
	<g>
		<g>
			<path fill="#FFC25F" d="M-19.151,39.065c0-7.614-6.172-13.786-13.786-13.786s-13.787,6.172-13.787,13.786
				c0,7.615,6.173,13.787,13.787,13.787S-19.151,46.68-19.151,39.065z"/>
		</g>
	</g>
	<g>
		<g>
			<path fill="#FFC25F" d="M106.408,8.746c0-7.614-6.172-13.787-13.786-13.787S78.835,1.131,78.835,8.746
				c0,7.615,6.173,13.787,13.787,13.787S106.408,16.36,106.408,8.746z"/>
		</g>
	</g>
	<g>
		<g>
			<path fill="#FFC25F" d="M50.248,55.786c0-7.614-6.172-13.787-13.786-13.787c-7.613,0-13.787,6.172-13.787,13.787
				s6.174,13.787,13.787,13.787C44.076,69.573,50.248,63.4,50.248,55.786z"/>
		</g>
	</g>
	<g>
		<g>
			<path fill="#FFC25F" d="M34.528,86.585c0-7.614-6.172-13.786-13.786-13.786S6.955,78.972,6.955,86.585
				c0,7.615,6.173,13.787,13.787,13.787S34.528,94.2,34.528,86.585z"/>
		</g>
	</g>
	<g>
		<g>
			<path fill="#FFC25F" d="M-0.672,69.866c0-7.614-6.172-13.787-13.786-13.787s-13.787,6.172-13.787,13.787
				s6.173,13.787,13.787,13.787S-0.672,77.48-0.672,69.866z"/>
		</g>
	</g>
	<g>
		<g>
			<path fill="#FFC25F" d="M-44.672,59.306c0-7.614-6.172-13.787-13.786-13.787s-13.787,6.172-13.787,13.787
				s6.173,13.787,13.787,13.787S-44.672,66.92-44.672,59.306z"/>
		</g>
	</g>
	<g>
		<g>
			<path fill="#FFC25F" d="M-78.991,9.146c0-7.614-6.173-13.787-13.786-13.787c-7.614,0-13.787,6.173-13.787,13.787
				c0,7.615,6.173,13.787,13.787,13.787C-85.164,22.933-78.991,16.76-78.991,9.146z"/>
		</g>
	</g>
	<g>
		<g>
			<path fill="#FFFFFF" d="M-96.002,1.039c2.831,0,4.521,2.226,4.521,4.378c0,0.621-0.147,1.304-0.367,1.748l2.084,1.042
				c0.078,0.039,0.128,0.119,0.128,0.207v1.844h1.383c0.005,0,0.046,0.002,0.052,0.003c0.308,0.021,0.398,0.118,0.408,0.458v1.844
				h1.383c0.06,0,0.101-0.006,0.128-0.011c0.056-0.009,0.16-0.025,0.251,0.057c0.093,0.083,0.089,0.188,0.085,0.28
				c-0.001,0.034-0.003,0.078-0.003,0.135v2.088c0,0.374-0.303,0.677-0.677,0.677h-1.786c-0.163,0-0.321-0.059-0.446-0.167
				l-6.077-5.328c-0.299,0.06-0.752,0.138-1.066,0.138c-2.59,0-4.696-2.106-4.696-4.695C-100.698,3.146-98.592,1.039-96.002,1.039z
				 M-96.002,9.969c0.231,0,0.626-0.055,1.084-0.151c0.071-0.016,0.145,0.004,0.2,0.052l6.162,5.402
				c0.04,0.035,0.091,0.055,0.144,0.055h1.786c0.119,0,0.216-0.097,0.216-0.216v-2.088h-1.612c-0.128,0-0.23-0.103-0.23-0.23v-2.074
				h-1.613c-0.128,0-0.231-0.103-0.231-0.23V8.556l-2.177-1.088c-0.061-0.031-0.104-0.086-0.121-0.152
				c-0.017-0.065-0.002-0.135,0.037-0.189c0.202-0.28,0.418-0.975,0.418-1.709c0-1.926-1.52-3.917-4.062-3.917
				c-2.336,0-4.235,1.9-4.235,4.235C-100.237,8.069-98.338,9.969-96.002,9.969z"/>
		</g>
		<g>
			<path fill="#FFFFFF" d="M-96.78,3.344c0.89,0,1.613,0.724,1.613,1.613c0,0.89-0.724,1.614-1.613,1.614
				c-0.889,0-1.612-0.724-1.612-1.614C-98.393,4.067-97.669,3.344-96.78,3.344z M-96.78,6.109c0.636,0,1.152-0.517,1.152-1.152
				c0-0.635-0.517-1.152-1.152-1.152s-1.152,0.517-1.152,1.152C-97.933,5.592-97.416,6.109-96.78,6.109z"/>
		</g>
		<g>
			<path fill="#FFFFFF" d="M-93.931,9.014c0.055,0,0.108,0.019,0.152,0.057l5.216,4.573l-0.305,0.347l-5.215-4.573
				c-0.096-0.084-0.105-0.229-0.021-0.325C-94.059,9.04-93.994,9.014-93.931,9.014z"/>
		</g>
	</g>
	<g>
		<g>
			<path fill="#6EC5CF" d="M44.434,20.216H55.7c0.445,0,0.806,0.361,0.806,0.805v11.269c0,0.009-0.004,0.016-0.005,0.025
				c-0.001,0.012-0.005,0.023-0.007,0.035c-0.009,0.038-0.025,0.072-0.048,0.103c-0.004,0.004-0.004,0.011-0.008,0.016l-4.293,4.829
				c-0.002,0.002-0.004,0.002-0.005,0.003c-0.032,0.035-0.072,0.058-0.12,0.072c-0.01,0.002-0.019,0.004-0.029,0.006
				c-0.016,0.002-0.029,0.009-0.046,0.009h-7.512c-0.444,0-0.806-0.361-0.806-0.805V21.021
				C43.628,20.577,43.989,20.216,44.434,20.216z M52.214,36.413l3.427-3.855h-3.159c-0.117,0-0.268,0.226-0.268,0.402V36.413z
				 M44.164,36.582c0,0.147,0.122,0.268,0.27,0.268h7.243v-3.89c0-0.434,0.352-0.939,0.805-0.939h3.488v-11
				c0-0.147-0.121-0.268-0.27-0.268H44.434c-0.15,0-0.27,0.118-0.27,0.268V36.582z"/>
		</g>
		<g>
			<path fill="#6EC5CF" d="M46.579,29.875h6.976c0.147,0,0.269,0.12,0.269,0.268s-0.121,0.268-0.269,0.268h-6.976
				c-0.148,0-0.268-0.12-0.268-0.268S46.431,29.875,46.579,29.875z"/>
		</g>
		<g>
			<path fill="#6EC5CF" d="M46.579,27.728h6.976c0.147,0,0.269,0.121,0.269,0.269c0,0.148-0.121,0.268-0.269,0.268h-6.976
				c-0.148,0-0.268-0.12-0.268-0.268C46.312,27.848,46.431,27.728,46.579,27.728z"/>
		</g>
		<g>
			<path fill="#6EC5CF" d="M46.579,32.021h3.22c0.148,0,0.269,0.12,0.269,0.269c0,0.148-0.12,0.268-0.269,0.268h-3.22
				c-0.148,0-0.268-0.12-0.268-0.268C46.312,32.141,46.431,32.021,46.579,32.021z"/>
		</g>
		<g>
			<path fill="#6EC5CF" d="M46.579,25.582h6.976c0.147,0,0.269,0.12,0.269,0.268c0,0.148-0.121,0.268-0.269,0.268h-6.976
				c-0.148,0-0.268-0.12-0.268-0.268C46.312,25.702,46.431,25.582,46.579,25.582z"/>
		</g>
		<g>
			<path fill="#6EC5CF" d="M46.579,23.435h6.976c0.147,0,0.269,0.121,0.269,0.269c0,0.148-0.121,0.268-0.269,0.268h-6.976
				c-0.148,0-0.268-0.12-0.268-0.268C46.312,23.556,46.431,23.435,46.579,23.435z"/>
		</g>
	</g>
	<g>
		<g>
			<path fill="#FFFFFF" d="M29.589,91.817l-6.441,3.636c-0.877,0.496-2.384,0.496-3.262,0l-6.441-3.636
				c-0.492-0.278-0.763-0.668-0.763-1.098s0.271-0.819,0.763-1.097l6.441-3.636c0.438-0.248,1.018-0.385,1.631-0.385
				c0.612,0,1.191,0.137,1.631,0.385l6.441,3.636c0.492,0.278,0.764,0.667,0.764,1.097S30.081,91.539,29.589,91.817z M29.296,90.142
				l-6.442-3.636c-0.69-0.39-1.983-0.39-2.674,0l-6.442,3.636c-0.292,0.165-0.46,0.376-0.46,0.578s0.168,0.413,0.46,0.578
				l6.442,3.636c0.345,0.195,0.832,0.307,1.337,0.307c0.504,0,0.991-0.112,1.337-0.307l6.442-3.636
				c0.292-0.165,0.459-0.376,0.459-0.578S29.588,90.307,29.296,90.142z"/>
		</g>
		<g>
			<path fill="#FFFFFF" d="M29.589,88.002c-0.144,0.081-0.325,0.03-0.406-0.113c-0.081-0.143-0.03-0.325,0.113-0.406
				c0.292-0.166,0.459-0.376,0.459-0.579c0-0.202-0.167-0.413-0.459-0.578l-6.442-3.636c-0.724-0.409-1.949-0.41-2.674,0
				l-6.442,3.636c-0.292,0.165-0.46,0.376-0.46,0.578c0,0.203,0.168,0.413,0.46,0.579c0.144,0.081,0.194,0.263,0.113,0.406
				c-0.08,0.145-0.263,0.195-0.406,0.113c-0.492-0.278-0.763-0.668-0.763-1.098s0.271-0.819,0.763-1.097l6.441-3.636
				c0.457-0.258,1.044-0.388,1.631-0.388s1.174,0.129,1.631,0.388l6.441,3.636c0.492,0.278,0.764,0.667,0.764,1.097
				S30.081,87.724,29.589,88.002z"/>
		</g>
		<g>
			<path fill="#FFFFFF" d="M29.589,84.261c-0.144,0.081-0.325,0.03-0.406-0.113s-0.03-0.325,0.113-0.406
				c0.292-0.166,0.459-0.376,0.459-0.578s-0.167-0.413-0.459-0.578l-6.442-3.636c-0.724-0.409-1.949-0.41-2.674,0l-6.442,3.636
				c-0.292,0.165-0.46,0.376-0.46,0.578s0.168,0.413,0.46,0.578c0.144,0.081,0.194,0.263,0.113,0.406
				c-0.08,0.144-0.263,0.195-0.406,0.113c-0.491-0.278-0.763-0.668-0.763-1.098s0.271-0.819,0.763-1.097l6.441-3.636
				c0.457-0.258,1.044-0.387,1.631-0.387s1.174,0.129,1.631,0.387l6.441,3.636c0.492,0.278,0.764,0.667,0.764,1.097
				S30.081,83.983,29.589,84.261z"/>
		</g>
	</g>
	<g>
		<g>
			<path fill="#FFFFFF" d="M46.207,55.629c-0.123,0-0.222-0.099-0.222-0.221V49.65c0-0.122-0.1-0.221-0.223-0.221H28.492
				c-0.122,0-0.222,0.099-0.222,0.221v5.757c0,0.122-0.099,0.221-0.221,0.221c-0.123,0-0.222-0.099-0.222-0.221V49.65
				c0-0.366,0.298-0.664,0.664-0.664h17.271c0.366,0,0.665,0.298,0.665,0.664v5.757C46.428,55.53,46.329,55.629,46.207,55.629z"/>
		</g>
		<g>
			<path fill="#FFFFFF" d="M45.763,60.058H28.492c-0.366,0-0.664-0.298-0.664-0.665v-2.657c0-0.123,0.099-0.222,0.222-0.222h5.978
				v-1.55c0-0.366,0.299-0.664,0.665-0.664h4.871c0.366,0,0.664,0.298,0.664,0.664v1.55h5.979c0.122,0,0.221,0.099,0.221,0.222
				v2.657C46.428,59.759,46.129,60.058,45.763,60.058z M39.784,54.964c0-0.122-0.099-0.221-0.221-0.221h-4.871
				c-0.123,0-0.222,0.099-0.222,0.221v1.55h5.313V54.964z M45.985,56.958H28.271v2.436c0,0.122,0.1,0.222,0.222,0.222h17.271
				c0.123,0,0.223-0.1,0.223-0.222V56.958z"/>
		</g>
		<g>
			<path fill="#FFFFFF" d="M34.692,63.157c-0.366,0-0.665-0.298-0.665-0.664v-1.771c0-0.122,0.1-0.222,0.222-0.222
				s0.222,0.1,0.222,0.222v1.771c0,0.122,0.099,0.221,0.222,0.221h4.871c0.122,0,0.221-0.099,0.221-0.221v-1.771
				c0-0.122,0.1-0.222,0.222-0.222c0.123,0,0.222,0.1,0.222,0.222v1.771c0,0.366-0.298,0.664-0.664,0.664H34.692z"/>
		</g>
	</g>
	<g>
		<g>
			<path fill="#FFFFFF" d="M-9.329,78.174c0,0.145-0.116,0.261-0.261,0.261h-10.463c-0.145,0-0.262-0.117-0.262-0.261
				c0-0.144,0.117-0.261,0.262-0.261H-9.59C-9.445,77.913-9.329,78.03-9.329,78.174z"/>
		</g>
		<g>
			<path fill="#FFFFFF" d="M-9.862,75.244v1.886c0,0.145-0.117,0.261-0.262,0.261h-9.354c-0.144,0-0.26-0.116-0.26-0.261v-1.886
				c0-2.598,1.986-4.359,3.139-5.161c-1.321-0.91-3.183-2.64-3.183-5.163v-1.886c0-0.144,0.117-0.261,0.261-0.261h9.396
				c0.145,0,0.262,0.117,0.262,0.261v1.871c0,2.59-2.017,4.367-3.182,5.176C-11.725,70.991-9.862,72.721-9.862,75.244z
				 M-14.822,65.807l2.512-2.511h-5.022L-14.822,65.807z M-13.656,70.303c-0.075-0.048-0.121-0.131-0.121-0.221
				c0-0.09,0.046-0.173,0.121-0.221c0.983-0.624,3.271-2.355,3.271-4.956v-1.61h-1.193c-0.005,0.005-0.008,0.013-0.013,0.018
				l-2.97,2.97v0.405c0,0.145-0.117,0.261-0.262,0.261s-0.261-0.116-0.261-0.261v-0.405l-2.97-2.97
				c-0.006-0.005-0.008-0.013-0.013-0.018h-1.193v1.625c0,2.493,2.05,4.166,3.272,4.941c0.074,0.048,0.12,0.131,0.12,0.221
				c0,0.089-0.046,0.172-0.12,0.221c-0.971,0.615-3.229,2.329-3.229,4.941v1.625h8.831v-1.625
				C-10.385,72.75-12.435,71.078-13.656,70.303z"/>
		</g>
		<g>
			<path fill="#FFFFFF" d="M-12.189,73.751h-5.124c-0.095,0-0.181-0.05-0.227-0.132c-0.047-0.081-0.046-0.181,0.001-0.261
				c0.62-1.055,1.525-1.701,2.482-2.385l0.083-0.059c0.046-0.032,0.1-0.048,0.151-0.048c0.054,0,0.106,0.016,0.152,0.048
				c0.137,0.097,0.274,0.194,0.412,0.29c0.855,0.597,1.74,1.214,2.292,2.154c0.048,0.081,0.049,0.181,0.002,0.261
				C-12.011,73.701-12.097,73.751-12.189,73.751z M-14.557,71.632c-0.088-0.061-0.177-0.123-0.265-0.185
				c-0.785,0.562-1.479,1.066-2.007,1.783h4.146C-13.174,72.597-13.849,72.126-14.557,71.632z"/>
		</g>
		<g>
			<path fill="#FFFFFF" d="M-20.053,61.73H-9.59c0.145,0,0.261,0.116,0.261,0.261s-0.116,0.261-0.261,0.261h-10.463
				c-0.145,0-0.262-0.117-0.262-0.261S-20.197,61.73-20.053,61.73z"/>
		</g>
		<g>
			<path fill="#FFFFFF" d="M-14.822,68.517c-0.145,0-0.261-0.117-0.261-0.261v-0.522c0-0.144,0.116-0.261,0.261-0.261
				s0.262,0.117,0.262,0.261v0.522C-14.561,68.399-14.678,68.517-14.822,68.517z"/>
		</g>
		<g>
			<path fill="#FFFFFF" d="M-14.822,70.083c-0.145,0-0.261-0.117-0.261-0.261v-0.522c0-0.145,0.116-0.261,0.261-0.261
				s0.262,0.116,0.262,0.261v0.522C-14.561,69.966-14.678,70.083-14.822,70.083z"/>
		</g>
	</g>
	<g>
		<path fill="#6EC5CF" d="M-80.562,32.595c0.107-0.025,0.252-0.157,0.295-0.277l0.212-0.513c0.047-0.098,0.039-0.293-0.019-0.386
			l-0.849-1.388c-0.182-0.297-0.145-0.719,0.1-0.992l0.719-0.717c0.25-0.223,0.691-0.263,0.979-0.088l1.387,0.848
			c0.087,0.054,0.272,0.072,0.404,0.011l0.512-0.211c0.103-0.036,0.235-0.181,0.261-0.287l0.381-1.581
			c0.081-0.335,0.401-0.611,0.744-0.643c0,0,0.211-0.019,0.526-0.019c0.316,0,0.527,0.019,0.528,0.019
			c0.342,0.031,0.662,0.307,0.743,0.643l0.382,1.582c0.024,0.106,0.157,0.251,0.276,0.293l0.512,0.212
			c0.092,0.044,0.301,0.035,0.387-0.019l1.388-0.848c0.122-0.074,0.268-0.114,0.424-0.114c0.209,0,0.412,0.074,0.568,0.214
			l0.718,0.718c0.232,0.26,0.269,0.682,0.088,0.979l-0.849,1.387c-0.058,0.093-0.066,0.288-0.01,0.404l0.211,0.512
			c0.035,0.104,0.18,0.235,0.287,0.26l1.581,0.381c0.335,0.081,0.61,0.401,0.642,0.744c0,0,0.02,0.211,0.02,0.527
			s-0.02,0.527-0.02,0.527c-0.031,0.343-0.307,0.663-0.643,0.745l-1.58,0.38c-0.107,0.026-0.252,0.157-0.295,0.277l-0.212,0.512
			c-0.048,0.099-0.039,0.293,0.019,0.387l0.849,1.388c0.181,0.298,0.145,0.719-0.1,0.992l-0.719,0.717
			c-0.25,0.223-0.692,0.263-0.979,0.088l-1.388-0.848c-0.086-0.053-0.273-0.073-0.403-0.011l-0.512,0.211
			c-0.103,0.036-0.235,0.18-0.26,0.287l-0.382,1.581c-0.081,0.335-0.401,0.611-0.744,0.643c0,0-0.211,0.019-0.527,0.019
			c-0.315,0-0.526-0.019-0.527-0.019c-0.342-0.031-0.662-0.308-0.743-0.643l-0.381-1.581c-0.025-0.106-0.158-0.251-0.277-0.293
			l-0.513-0.212c-0.092-0.044-0.3-0.035-0.387,0.019l-1.387,0.848c-0.287,0.175-0.72,0.144-0.992-0.1l-0.718-0.719
			c-0.232-0.26-0.27-0.681-0.088-0.979l0.849-1.387c0.058-0.093,0.065-0.288,0.01-0.404l-0.211-0.512
			c-0.035-0.104-0.18-0.235-0.287-0.26l-1.581-0.381c-0.335-0.081-0.61-0.401-0.642-0.744c0,0-0.02-0.211-0.02-0.527
			s0.02-0.527,0.02-0.527c0.031-0.343,0.307-0.664,0.642-0.745L-80.562,32.595z M-82.196,34.247c0,0.278,0.016,0.466,0.018,0.472
			c0.007,0.082,0.1,0.189,0.18,0.209l1.581,0.381c0.307,0.074,0.615,0.354,0.712,0.635l0.197,0.479
			c0.138,0.283,0.118,0.7-0.047,0.97l-0.848,1.386c-0.042,0.067-0.029,0.201,0.01,0.247l0.693,0.693
			c0.056,0.049,0.197,0.062,0.26,0.023l1.387-0.849c0.264-0.161,0.714-0.172,0.953-0.054l0.478,0.198
			c0.298,0.103,0.578,0.412,0.653,0.719l0.38,1.581c0.02,0.08,0.127,0.173,0.209,0.18c0.006,0,0.193,0.017,0.472,0.017
			c0.279,0,0.466-0.017,0.473-0.017c0.082-0.007,0.189-0.1,0.208-0.18l0.381-1.581c0.075-0.307,0.354-0.616,0.636-0.712l0.479-0.197
			c0.277-0.136,0.708-0.115,0.97,0.046l1.387,0.849c0.063,0.039,0.212,0.018,0.246-0.011l0.693-0.693
			c0.053-0.059,0.064-0.192,0.023-0.259l-0.848-1.386c-0.165-0.27-0.186-0.687-0.054-0.953l0.198-0.479
			c0.103-0.298,0.411-0.579,0.719-0.653l1.579-0.38c0.081-0.02,0.174-0.127,0.181-0.209c0.002-0.006,0.018-0.194,0.018-0.472
			s-0.016-0.466-0.018-0.472c-0.007-0.082-0.1-0.189-0.18-0.209l-1.581-0.381c-0.307-0.074-0.615-0.354-0.712-0.636l-0.197-0.478
			c-0.139-0.284-0.118-0.701,0.047-0.97l0.848-1.386c0.041-0.067,0.029-0.201-0.01-0.247l-0.693-0.693
			c-0.033-0.029-0.093-0.048-0.152-0.048c-0.042,0-0.081,0.009-0.107,0.025l-1.387,0.848c-0.262,0.16-0.713,0.172-0.953,0.054
			l-0.478-0.198c-0.299-0.103-0.578-0.413-0.652-0.719l-0.382-1.581c-0.019-0.079-0.126-0.172-0.208-0.18
			c-0.007,0-0.193-0.017-0.473-0.017c-0.278,0-0.466,0.017-0.472,0.017c-0.082,0.008-0.189,0.101-0.209,0.18l-0.38,1.581
			c-0.075,0.307-0.355,0.616-0.637,0.712l-0.478,0.197c-0.124,0.06-0.274,0.092-0.435,0.092c-0.199,0-0.39-0.049-0.535-0.138
			l-1.387-0.848c-0.063-0.039-0.214-0.018-0.246,0.011l-0.694,0.693c-0.052,0.059-0.064,0.192-0.022,0.259l0.848,1.386
			c0.165,0.27,0.185,0.687,0.054,0.953l-0.198,0.479c-0.103,0.298-0.411,0.579-0.719,0.653l-1.58,0.38
			c-0.08,0.02-0.173,0.127-0.18,0.209C-82.181,33.781-82.196,33.969-82.196,34.247z"/>
	</g>
	<g>
		<path fill="#6EC5CF" d="M-74.909,30.907c1.842,0,3.341,1.499,3.341,3.34s-1.499,3.34-3.341,3.34c-1.841,0-3.34-1.499-3.34-3.34
			S-76.75,30.907-74.909,30.907z M-74.909,36.98c1.508,0,2.733-1.226,2.733-2.733s-1.226-2.733-2.733-2.733
			c-1.507,0-2.732,1.226-2.732,2.733S-76.416,36.98-74.909,36.98z"/>
	</g>
	<path fill="#FFFFFF" d="M-50.27,65.838c-0.74,0-1.343-0.602-1.343-1.343c0-0.397,0.178-0.751,0.453-0.998l-3.938-6.28
		c-0.167,0.074-0.35,0.116-0.542,0.116c-0.389,0-0.736-0.168-0.981-0.433l-4.062,2.571c0.075,0.167,0.119,0.352,0.119,0.547
		c0,0.74-0.603,1.343-1.343,1.343s-1.343-0.603-1.343-1.343c0-0.404,0.184-0.764,0.468-1.01l-3.086-4.912
		c-0.159,0.066-0.332,0.103-0.515,0.103c-0.74,0-1.343-0.603-1.343-1.343s0.603-1.343,1.343-1.343s1.343,0.603,1.343,1.343
		c0,0.397-0.177,0.751-0.452,0.997l3.09,4.919c0.154-0.062,0.32-0.098,0.495-0.098c0.385,0,0.729,0.165,0.975,0.424l4.063-2.572
		c-0.072-0.165-0.113-0.346-0.113-0.537c0-0.74,0.602-1.343,1.343-1.343c0.74,0,1.342,0.603,1.342,1.343
		c0,0.387-0.166,0.732-0.428,0.978l3.943,6.287c0.158-0.066,0.331-0.103,0.513-0.103c0.741,0,1.343,0.602,1.343,1.342
		C-48.927,65.236-49.528,65.838-50.27,65.838z M-65.486,52.858c0-0.494-0.402-0.895-0.896-0.895s-0.896,0.401-0.896,0.895
		s0.402,0.895,0.896,0.895S-65.486,53.352-65.486,52.858z M-61.906,59.125c-0.493,0-0.896,0.401-0.896,0.895
		s0.402,0.895,0.896,0.895s0.896-0.401,0.896-0.895S-61.413,59.125-61.906,59.125z M-55.64,55.096c-0.494,0-0.896,0.402-0.896,0.895
		c0,0.494,0.401,0.896,0.896,0.896c0.493,0,0.895-0.402,0.895-0.896C-54.745,55.498-55.146,55.096-55.64,55.096z M-50.27,63.6
		c-0.493,0-0.895,0.402-0.895,0.895c0,0.494,0.401,0.896,0.895,0.896c0.494,0,0.896-0.402,0.896-0.896
		C-49.374,64.002-49.775,63.6-50.27,63.6z"/>
	<g>
		<path fill="#6EC5CF" d="M74.461,53.696c-0.223,3.425-2.605,6.728-6.974,6.728c-0.534,0-1.06-0.052-1.564-0.154
			c-0.141-0.028-0.23-0.165-0.202-0.306s0.163-0.231,0.306-0.203c0.47,0.096,0.961,0.144,1.461,0.144
			c4.449,0,6.478-3.492,6.478-6.736v-0.777c0-0.144,0.115-0.259,0.259-0.259c0.143,0,0.26,0.116,0.26,0.259v0.777
			c0,0.002-0.002,0.005-0.002,0.008c1.588-0.137,3.629-1.519,3.629-4.413c0-2.47-1.82-4.405-4.146-4.405H61.527
			c-2.061,0-4.146,1.513-4.146,4.405c0,2.122,1.298,4.405,4.146,4.405h0.777c0.143,0,0.259,0.115,0.259,0.259
			c0,0.143-0.116,0.259-0.259,0.259h-0.777v1.037c0,1.931,1.191,3.131,3.109,3.131c1.742,0,3.109-1.376,3.109-3.131V47.99l-2.155,2
			c-0.105,0.097-0.269,0.091-0.367-0.014c-0.098-0.104-0.092-0.269,0.015-0.366l2.34-2.171c0.154-0.154,0.291-0.231,0.428-0.231
			c0.136,0,0.27,0.075,0.42,0.225l2.347,2.177c0.104,0.097,0.111,0.261,0.013,0.366c-0.097,0.106-0.262,0.111-0.365,0.014l-2.156-2
			v6.733c0,2.046-1.594,3.649-3.627,3.649c-2.204,0-3.628-1.432-3.628-3.649V53.66c-2.723-0.263-4.146-2.592-4.146-4.896
			c0-2.387,1.635-4.923,4.664-4.923h12.438c2.615,0,4.664,2.163,4.664,4.923C78.629,52.031,76.268,53.571,74.461,53.696z"/>
	</g>
	<g>
		<path fill="#FFFFFF" d="M92.282,17.61c-5.194,0-7.677-2.934-7.78-3.059c-0.043-0.052-0.067-0.118-0.067-0.185V8.522
			c0-4.943,4.55-7.878,6.506-8.911c0.141-0.075,0.316-0.02,0.393,0.122c0.074,0.142,0.021,0.318-0.122,0.393
			c-2.313,1.221-6.194,3.937-6.194,8.397v5.733c0.408,0.439,2.692,2.672,6.976,2.77V-0.701c0-0.161,0.13-0.291,0.29-0.291
			c0.088,0,0.165,0.038,0.219,0.098c0.951,0.409,7.629,3.497,7.629,9.494v5.813c0,0.068-0.023,0.134-0.066,0.186
			c-0.087,0.104-2.159,2.543-6.477,2.979c-0.16,0.011-0.303-0.1-0.318-0.26c-0.017-0.16,0.101-0.302,0.26-0.318
			c3.655-0.369,5.641-2.293,6.021-2.698V8.6c0-5.204-5.442-8.109-6.976-8.824V17.32C92.573,17.48,92.443,17.61,92.282,17.61z"/>
	</g>
	<g>
		<path fill="#FFFFFF" d="M-42.067,38.837c0.209-5.037,4.36-9.073,9.448-9.073c5.086,0,9.238,4.036,9.448,9.073
			c0.012,0.031,0.021,0.064,0.021,0.1c0,0.021-0.009,0.04-0.013,0.06c0.002,0.079,0.013,0.156,0.013,0.236
			c0,5.221-4.248,9.468-9.469,9.468c-5.222,0-9.47-4.248-9.47-9.468c0-0.08,0.012-0.157,0.013-0.236
			c-0.004-0.02-0.013-0.039-0.013-0.06C-42.089,38.901-42.079,38.868-42.067,38.837z M-27.34,35.243
			c-0.78,0.326-1.619,0.579-2.496,0.752c0.095,0.859,0.15,1.753,0.167,2.646h2.947C-26.775,37.425-26.991,36.277-27.34,35.243z
			 M-26.131,38.641h2.358c-0.111-1.661-0.675-3.197-1.576-4.485c-0.449,0.316-0.934,0.603-1.453,0.853
			C-26.421,36.114-26.187,37.342-26.131,38.641z M-34.757,35.513c0.697,0.108,1.412,0.169,2.138,0.169
			c0.724,0,1.44-0.061,2.137-0.168c-0.412-3.158-1.309-5.158-2.137-5.158S-34.346,32.355-34.757,35.513z M-33.857,30.555
			c-1.628,0.521-3.005,2.054-3.837,4.133c0.738,0.311,1.531,0.553,2.362,0.72C-35.061,33.339-34.565,31.536-33.857,30.555z
			 M-34.824,42.364c0.72-0.111,1.458-0.172,2.205-0.172c0.746,0,1.484,0.061,2.204,0.172c0.102-0.958,0.163-2.005,0.163-3.131
			h-4.734C-34.986,40.358-34.926,41.405-34.824,42.364z M-30.261,38.641c-0.017-0.903-0.07-1.752-0.154-2.539
			c-0.72,0.111-1.458,0.172-2.204,0.172c-0.747,0-1.485-0.061-2.205-0.172c-0.085,0.787-0.137,1.636-0.154,2.539H-30.261z
			 M-29.907,35.408c0.831-0.167,1.624-0.409,2.361-0.72c-0.831-2.08-2.207-3.612-3.836-4.133
			C-30.675,31.536-30.179,33.339-29.907,35.408z M-29.66,39.232c0,1.086-0.061,2.188-0.176,3.237
			c0.877,0.173,1.716,0.426,2.496,0.753c0.404-1.202,0.638-2.555,0.638-3.99H-29.66z M-29.907,43.057
			c-0.271,2.069-0.768,3.873-1.475,4.854c1.629-0.521,3.005-2.054,3.836-4.133C-28.283,43.466-29.076,43.224-29.907,43.057z
			 M-30.482,42.952c-0.696-0.108-1.413-0.169-2.137-0.169c-0.726,0-1.44,0.061-2.138,0.169c0.411,3.157,1.31,5.157,2.138,5.157
			S-30.895,46.109-30.482,42.952z M-35.332,43.057c-0.831,0.167-1.624,0.41-2.362,0.72c0.832,2.08,2.209,3.612,3.837,4.133
			C-34.565,46.929-35.061,45.126-35.332,43.057z M-35.404,42.47c-0.114-1.05-0.175-2.151-0.175-3.237h-2.959
			c0,1.436,0.234,2.789,0.64,3.99C-37.118,42.896-36.28,42.643-35.404,42.47z M-35.57,38.641c0.017-0.892,0.073-1.786,0.166-2.646
			c-0.876-0.173-1.714-0.426-2.494-0.753c-0.35,1.035-0.565,2.183-0.618,3.398H-35.57z M-38.438,35.008
			c-0.519-0.25-1.004-0.537-1.453-0.853c-0.902,1.288-1.466,2.825-1.576,4.485h2.358C-39.054,37.342-38.818,36.114-38.438,35.008z
			 M-39.536,33.681c0.405,0.284,0.838,0.546,1.307,0.773c0.594-1.47,1.448-2.692,2.477-3.517
			C-37.248,31.504-38.552,32.456-39.536,33.681z M-29.485,30.938c1.027,0.825,1.882,2.046,2.477,3.517
			c0.468-0.227,0.9-0.489,1.306-0.773C-26.688,32.457-27.992,31.504-29.485,30.938z M-26.109,39.232
			c0,1.519-0.254,2.951-0.692,4.224c0.52,0.25,1.004,0.537,1.453,0.853c1.009-1.44,1.605-3.188,1.605-5.077H-26.109z
			 M-25.703,44.784c-0.405-0.285-0.838-0.546-1.306-0.773c-0.595,1.47-1.449,2.692-2.477,3.517
			C-27.992,46.96-26.688,46.008-25.703,44.784z M-35.753,47.527c-1.028-0.825-1.883-2.046-2.477-3.517
			c-0.469,0.227-0.901,0.488-1.307,0.773C-38.552,46.009-37.248,46.96-35.753,47.527z M-39.891,44.309
			c0.449-0.315,0.935-0.603,1.453-0.853c-0.438-1.273-0.691-2.705-0.691-4.224h-2.367C-41.496,41.121-40.899,42.869-39.891,44.309z"
			/>
	</g>
	<g>
		<path fill="#E6E6E6" d="M-78.991,9.146c0,7.595-6.141,13.751-13.727,13.784V-4.638C-85.132-4.605-78.991,1.552-78.991,9.146z"/>
	</g>
	<g>
		<path fill="#E6E6E6" d="M106.408,8.769c0,7.604-6.319,13.768-14.126,13.8V-5.03C100.089-4.998,106.408,1.167,106.408,8.769z"/>
	</g>
	<g>
		<path fill="#E6E6E6" d="M-44.672,59.287c0,7.673-6.202,13.887-14.046,13.806V45.519C-50.955,45.552-44.672,51.615-44.672,59.287z"
			/>
	</g>
	<g>
		<path fill="#E6E6E6" d="M-19.151,39.065c0,7.595-6.941,13.983-13.469,13.783l-0.098-27.487
			C-25.132,25.395-19.151,31.472-19.151,39.065z"/>
	</g>
	<g>
		<path fill="#E6E6E6" d="M-0.672,69.879c0,7.632-6.093,13.773-14.046,13.773V56.028C-6.955,56.062-0.672,62.249-0.672,69.879z"/>
	</g>
	<g>
		<path fill="#E6E6E6" d="M50.248,55.786c0,7.632-6.028,13.263-12.903,13.787l-0.063-27.544
			C44.251,42.424,50.248,48.155,50.248,55.786z"/>
	</g>
	<g>
		<path fill="#E6E6E6" d="M34.528,86.85c0,7.5-6.273,13.522-14.227,13.522l1.022-27.573C28.824,73.184,34.528,79.193,34.528,86.85z"
			/>
	</g>
	<path fill="#2E416B" d="M-48.692-13.096h-20.125c-1.628,0-2.96-1.332-2.96-2.959v-72.806h23.085V-13.096z"/>
	<path fill="#AAE6FE" d="M-71.718-88.607v-3.213c0-1.628,1.272-2.787,2.9-2.787h20.1v6H-71.718z"/>
	<path fill="#6EC5CF" d="M-48.718-88.607v-6h20.15c1.628,0,2.85,1.159,2.85,2.787v3.213H-48.718z"/>
	<path fill="#263658" d="M-25.607-88.861v72.806c0,1.628-1.332,2.959-2.96,2.959h-20.125v-75.766H-25.607z"/>
	<g>
		<polygon fill="#6EC5CF" points="-25.718,-23.607 -48.718,-23.607 -48.718,-25.607 -25.718,-25.607 		"/>
		<polygon fill="#6EC5CF" points="-25.718,-34.607 -25.718,-32.607 -48.718,-32.607 -48.718,-34.607 		"/>
		<polygon fill="#6EC5CF" points="-25.718,-42.607 -25.718,-41.607 -48.718,-41.607 -48.718,-42.607 		"/>
		<polygon fill="#6EC5CF" points="-25.718,-51.607 -25.718,-49.607 -48.718,-49.607 -48.718,-51.607 		"/>
	</g>
	<g>
		<polygon fill="#AAE6FE" points="-55.718,-23.607 -55.718,-25.607 -48.718,-25.607 -48.718,-23.607 		"/>
		<polygon fill="#AAE6FE" points="-55.718,-34.607 -48.718,-34.607 -48.718,-32.607 -55.718,-32.607 		"/>
		<polygon fill="#AAE6FE" points="-55.718,-42.607 -48.718,-42.607 -48.718,-41.607 -55.718,-41.607 		"/>
		<polygon fill="#AAE6FE" points="-55.718,-51.607 -48.718,-51.607 -48.718,-49.607 -55.718,-49.607 		"/>
	</g>
	<polygon fill="#F2F2F2" points="-30.718,-97.607 -66.718,-97.607 -66.718,-94.607 -30.718,-94.607 	"/>
	<polygon fill="#CCCCCC" points="-30.718,-95.607 -66.718,-95.607 -66.718,-94.607 -30.718,-94.607 	"/>
	<polygon fill="#CCCCCC" points="-25.718,-100.607 -70.718,-100.607 -70.718,-97.607 -25.718,-97.607 	"/>
	<g>
		<polygon fill="#FFC25F" points="-54.718,-26.607 -71.718,-26.607 -71.718,-22.607 -54.718,-22.607 		"/>
		<polygon fill="#FFC25F" points="-54.718,-35.607 -71.718,-35.607 -71.718,-31.607 -54.718,-31.607 		"/>
		<polygon fill="#FFC25F" points="-54.718,-44.607 -71.718,-44.607 -71.718,-39.607 -54.718,-39.607 		"/>
		<polygon fill="#FFC25F" points="-54.718,-52.607 -71.718,-52.607 -71.718,-48.607 -54.718,-48.607 		"/>
	</g>
	<path fill="#2E416B" d="M48.524-13.096H28.399c-1.628,0-2.96-1.332-2.96-2.959v-72.806h23.085V-13.096z"/>
	<path fill="#AAE6FE" d="M25.282-88.607v-3.213c0-1.628,1.489-2.787,3.117-2.787h19.883v6H25.282z"/>
	<path fill="#6EC5CF" d="M48.282-88.607v-6h20.367c1.628,0,2.633,1.159,2.633,2.787v3.213H48.282z"/>
	<path fill="#263658" d="M71.609-88.861v72.806c0,1.628-1.332,2.959-2.96,2.959H48.524v-75.766H71.609z"/>
	<g>
		<polygon fill="#6EC5CF" points="71.282,-23.607 48.282,-23.607 48.282,-25.607 71.282,-25.607 		"/>
		<polygon fill="#6EC5CF" points="71.282,-34.607 71.282,-32.607 48.282,-32.607 48.282,-34.607 		"/>
		<polygon fill="#6EC5CF" points="71.282,-42.607 71.282,-41.607 48.282,-41.607 48.282,-42.607 		"/>
		<polygon fill="#6EC5CF" points="71.282,-51.607 71.282,-49.607 48.282,-49.607 48.282,-51.607 		"/>
	</g>
	<g>
		<polygon fill="#AAE6FE" points="41.282,-23.607 41.282,-25.607 48.282,-25.607 48.282,-23.607 		"/>
		<polygon fill="#AAE6FE" points="41.282,-34.607 48.282,-34.607 48.282,-32.607 41.282,-32.607 		"/>
		<polygon fill="#AAE6FE" points="41.282,-42.607 48.282,-42.607 48.282,-41.607 41.282,-41.607 		"/>
		<polygon fill="#AAE6FE" points="41.282,-51.607 48.282,-51.607 48.282,-49.607 41.282,-49.607 		"/>
	</g>
	<polygon fill="#F2F2F2" points="67.282,-97.607 30.282,-97.607 30.282,-94.607 67.282,-94.607 	"/>
	<polygon fill="#CCCCCC" points="67.282,-95.607 30.282,-95.607 30.282,-94.607 67.282,-94.607 	"/>
	<polygon fill="#CCCCCC" points="71.282,-100.607 26.282,-100.607 26.282,-97.607 71.282,-97.607 	"/>
	<g>
		<polygon fill="#FFC25F" points="42.282,-26.607 25.282,-26.607 25.282,-22.607 42.282,-22.607 		"/>
		<polygon fill="#FFC25F" points="42.282,-35.607 25.282,-35.607 25.282,-31.607 42.282,-31.607 		"/>
		<polygon fill="#FFC25F" points="42.282,-44.607 25.282,-44.607 25.282,-39.607 42.282,-39.607 		"/>
		<polygon fill="#FFC25F" points="42.282,-52.607 25.282,-52.607 25.282,-48.607 42.282,-48.607 		"/>
	</g>
	<path fill="#2E416B" d="M-0.54-4.013h-25.557c-2.066,0-3.758-1.691-3.758-3.758v-92.455H-0.54V-4.013z"/>
	<path fill="#AAE6FE" d="M-29.718-100.607v-3.376c0-2.067,1.555-3.624,3.621-3.624h25.379v7H-29.718z"/>
	<path fill="#6EC5CF" d="M-0.718-100.607v-7h25.734c2.066,0,3.266,1.557,3.266,3.624v3.376H-0.718z"/>
	<path fill="#263658" d="M28.774-100.226v92.455c0,2.067-1.691,3.758-3.758,3.758H-0.54v-96.213H28.774z"/>
	<g>
		<polygon fill="#6EC5CF" points="28.282,-17.607 -0.718,-17.607 -0.718,-20.607 28.282,-20.607 		"/>
		<polygon fill="#6EC5CF" points="28.282,-30.607 28.282,-28.607 -0.718,-28.607 -0.718,-30.607 		"/>
		<polygon fill="#6EC5CF" points="28.282,-41.607 28.282,-39.607 -0.718,-39.607 -0.718,-41.607 		"/>
		<polygon fill="#6EC5CF" points="28.282,-52.607 28.282,-50.607 -0.718,-50.607 -0.718,-52.607 		"/>
	</g>
	<g>
		<g>
			<polygon fill="#AAE6FE" points="-9.718,-17.607 -9.718,-20.607 -0.718,-20.607 -0.718,-17.607 			"/>
			<polygon fill="#AAE6FE" points="-9.718,-30.607 -0.718,-30.607 -0.718,-28.607 -9.718,-28.607 			"/>
			<polygon fill="#AAE6FE" points="-9.718,-41.607 -0.718,-41.607 -0.718,-39.607 -9.718,-39.607 			"/>
			<polygon fill="#AAE6FE" points="-9.718,-52.607 -0.718,-52.607 -0.718,-50.607 -9.718,-50.607 			"/>
		</g>
	</g>
	<polygon fill="#F2F2F2" points="22.282,-111.607 -23.718,-111.607 -23.718,-108.607 22.282,-108.607 	"/>
	<polygon fill="#CCCCCC" points="22.282,-108.607 -23.718,-108.607 -23.718,-108.607 22.282,-108.607 	"/>
	<polygon fill="#CCCCCC" points="28.282,-114.607 -28.718,-114.607 -28.718,-111.607 28.282,-111.607 	"/>
	<g>
		<polygon fill="#FFC25F" points="-8.718,-21.607 -29.718,-21.607 -29.718,-16.607 -8.718,-16.607 		"/>
		<polygon fill="#FFC25F" points="-8.718,-32.607 -29.718,-32.607 -29.718,-26.607 -8.718,-26.607 		"/>
		<polygon fill="#FFC25F" points="-8.718,-43.607 -29.718,-43.607 -29.718,-38.607 -8.718,-38.607 		"/>
		<polygon fill="#FFC25F" points="-8.718,-53.607 -29.718,-53.607 -29.718,-48.607 -8.718,-48.607 		"/>
	</g>
</symbol>
<use xlink:href="#New_Symbol_6"  width="231.436" height="229.214" x="-115.718" y="-114.607" transform="matrix(2.6354 0 0 -2.6354 319.9995 319.9995)" overflow="visible"/>
</svg>
